<?xml version="1.0" encoding="UTF-8"?>
<svg width="30px" height="24px" viewBox="0 0 30 24" version="1.1" xmlns="http://www.w3.org/2000/svg" xmlns:xlink="http://www.w3.org/1999/xlink">
    <title>compliance resource icon</title>
    <g id="Page-1" stroke="none" stroke-width="1" fill="none" fill-rule="evenodd">
        <g id="Dashboard-landing-page" transform="translate(-20.000000, -316.000000)" fill="#FFFFFF" stroke="#FFFFFF" stroke-width="0.75">
            <g id="Fill-1-+-Fill-3-+-Fill-4-+-Fill-5-+-Fill-6-+-Fill-7-+-Fill-8-Mask" transform="translate(21.000000, 317.000000)">
                <path d="M1.07601351,21.2975 L26.9358108,21.2975 L26.9358108,3.9025 L1.07601351,3.9025 L1.07601351,21.2975 Z M27.4679054,22.4 L0.532094595,22.4 C0.236486486,22.4 0,22.155 0,21.84875 L0,3.35125 C0,3.045 0.236486486,2.8 0.532094595,2.8 L27.4679054,2.8 C27.7635135,2.8 28,3.045 28,3.35125 L28,21.861 C28,22.155 27.7635135,22.4 27.4679054,22.4 L27.4679054,22.4 Z" id="Fill-1"></path>
                <polygon id="Fill-3" points="22.4 10.2666667 27.0666667 10.2666667 27.0666667 9.33333333 22.4 9.33333333"></polygon>
                <polygon id="Fill-4" points="8.4 10.2666667 20.5333333 10.2666667 20.5333333 9.33333333 8.4 9.33333333"></polygon>
                <polygon id="Fill-5" points="0.933333333 10.2666667 5.6 10.2666667 5.6 9.33333333 0.933333333 9.33333333"></polygon>
                <path d="M20.5333333,3.73333333 L19.4444444,3.73333333 L19.4444444,1.2969697 C19.4444444,1.18787879 19.3476543,1.09090909 19.2387654,1.09090909 L8.76123457,1.09090909 C8.65234568,1.09090909 8.55555556,1.18787879 8.55555556,1.2969697 L8.55555556,3.73333333 L7.46666667,3.73333333 L7.46666667,1.2969697 C7.46666667,0.581818182 8.04740741,0 8.76123457,0 L19.2387654,0 C19.9525926,0 20.5333333,0.581818182 20.5333333,1.2969697 L20.5333333,3.73333333 Z" id="Fill-6"></path>
                <path d="M5.75404531,11.9777778 L7.31262136,11.9777778 L7.31262136,7.63444198 L5.75404531,7.63444198 L5.75404531,11.9777778 Z M7.85631068,13.0666667 L5.21035599,13.0666667 C4.90830636,13.0666667 4.66666667,12.8246914 4.66666667,12.5222222 L4.66666667,7.07777778 C4.66666667,6.77530864 4.90830636,6.53333333 5.21035599,6.53333333 L7.85631068,6.53333333 C8.1583603,6.53333333 8.4,6.77530864 8.4,7.07777778 L8.4,12.5222222 C8.4,12.8246914 8.1583603,13.0666667 7.85631068,13.0666667 L7.85631068,13.0666667 Z" id="Fill-7"></path>
                <path d="M20.6873786,11.9777778 L22.2459547,11.9777778 L22.2459547,7.63444198 L20.6873786,7.63444198 L20.6873786,11.9777778 Z M22.789644,13.0666667 L20.1436893,13.0666667 C19.8416397,13.0666667 19.6,12.8246914 19.6,12.5222222 L19.6,7.07777778 C19.6,6.77530864 19.8416397,6.53333333 20.1436893,6.53333333 L22.789644,6.53333333 C23.0916936,6.53333333 23.3333333,6.77530864 23.3333333,7.07777778 L23.3333333,12.5222222 C23.3333333,12.8246914 23.0916936,13.0666667 22.789644,13.0666667 L22.789644,13.0666667 Z" id="Fill-8"></path>
            </g>
        </g>
    </g>
</svg>