<?xml version="1.0" encoding="UTF-8"?>
<svg width="22px" height="22px" viewBox="0 0 22 22" version="1.1" xmlns="http://www.w3.org/2000/svg" xmlns:xlink="http://www.w3.org/1999/xlink">
    <title>home icon</title>
    <g id="Page-1" stroke="none" stroke-width="1" fill="none" fill-rule="evenodd">
        <g id="Dashboard-landing-page" transform="translate(-24.000000, -90.000000)" fill="#FFFFFF" fill-rule="nonzero" stroke="#FFFFFF">
            <path d="M44.9001737,101.019531 C45.0173618,101.14974 45.0726998,101.299478 45.0661893,101.46875 C45.0596789,101.638022 44.9978306,101.78776 44.8806425,101.917969 C44.7634544,102.035157 44.6202266,102.09375 44.450955,102.09375 C44.2686624,102.09375 44.1189243,102.028646 44.0017362,101.898438 L43.1618925,101.019531 L43.1618925,110.375 C43.1618925,110.544272 43.1000441,110.690755 42.9763456,110.814453 C42.8526471,110.938152 42.7061641,111 42.5368925,111 L38.1618925,111 C37.9926208,111 37.8461379,110.938152 37.7224393,110.814453 C37.5987408,110.690755 37.5368925,110.544272 37.5368925,110.375 L37.5368925,104.125 L32.5564237,104.125 L32.5368925,110.375 C32.5368925,110.414063 32.5303821,110.459635 32.5173612,110.511719 C32.5043403,110.563802 32.4880644,110.609375 32.4685331,110.648438 C32.4490017,110.6875 32.4262155,110.723307 32.4001737,110.755859 C32.3741319,110.788412 32.3415802,110.820963 32.3025175,110.853516 C32.2634548,110.886068 32.2243927,110.912109 32.18533,110.931641 C32.1462673,110.951172 32.10395,110.967448 32.0583768,110.980469 C32.0128037,110.99349 31.9639761,111 31.9118925,111 L27.5564237,111 C27.3741311,111 27.2243931,110.938152 27.107205,110.814453 C26.9900169,110.690755 26.9314237,110.544272 26.9314237,110.375 L26.9314237,101.019531 L26.0720487,101.898438 C26.0199651,101.950521 25.9548616,101.992838 25.8767362,102.025391 C25.7986108,102.057943 25.7204866,102.077474 25.6423612,102.083984 C25.5642358,102.090495 25.4861116,102.077474 25.4079862,102.044922 C25.3298608,102.01237 25.258247,101.970052 25.1931425,101.917969 C25.1150171,101.839843 25.0596791,101.745443 25.0271268,101.634766 C24.9945746,101.524088 24.9913194,101.416667 25.0173612,101.3125 C25.043403,101.208333 25.0954858,101.110678 25.1736112,101.019531 L34.607205,91.1953125 C34.737414,91.0651035 34.887152,91 35.0564237,91 C35.14757,91 35.2322046,91.0162759 35.31033,91.0488281 C35.3884554,91.0813804 35.4535589,91.130208 35.5056425,91.1953125 L44.9001737,101.019531 Z M41.9118925,99.8867188 C41.9118925,99.8346352 41.9184028,99.7825523 41.9314237,99.7304688 L35.0564237,92.5429688 L28.1618925,99.7304688 C28.1749134,99.7825523 28.1814237,99.8346352 28.1814237,99.8867188 L28.1814237,109.75 L31.2868925,109.75 L31.3064237,103.5 C31.3064237,103.330728 31.3682721,103.184245 31.4919706,103.060547 C31.6156691,102.936848 31.762152,102.875 31.9314237,102.875 L38.1618925,102.875 C38.3311641,102.875 38.4776471,102.936848 38.6013456,103.060547 C38.7250441,103.184245 38.7868925,103.330728 38.7868925,103.5 L38.7868925,109.75 L41.9118925,109.75 L41.9118925,99.8867188 Z" id="home-icon"></path>
        </g>
    </g>
</svg>