<?xml version="1.0" encoding="UTF-8"?>
<svg width="24px" height="24px" viewBox="0 0 24 24" version="1.1" xmlns="http://www.w3.org/2000/svg" xmlns:xlink="http://www.w3.org/1999/xlink">
    <title>outsolve</title>
    <defs>
        <polygon id="path-1" points="0.000257142857 0.7098 23.7628286 0.7098 23.7628286 24 0.000257142857 24"></polygon>
    </defs>
    <g id="Page-1" stroke="none" stroke-width="1" fill="none" fill-rule="evenodd">
        <g id="Dashboard-landing-page" transform="translate(-23.000000, -35.000000)">
            <g id="outsolve" transform="translate(23.000000, 35.000000)">
                <mask id="mask-2" fill="white">
                    <use xlink:href="#path-1"></use>
                </mask>
                <g id="Clip-2"></g>
                <path d="M11.8811143,19.1435143 C15.5591143,19.1435143 18.1991143,16.3149429 18.1991143,12.3069429 C18.1991143,8.20551429 15.5591143,5.51837143 11.9754,5.51837143 C8.15597143,5.51837143 5.61111429,8.20551429 5.61111429,12.3069429 C5.61111429,16.4572286 8.10968571,19.1435143 11.8811143,19.1435143 M11.8811143,0.7098 C18.7176857,0.7098 23.7628286,5.75408571 23.7628286,12.3549429 C23.7628286,19.0500857 18.8119714,24.0000857 11.7868286,24.0000857 C5.13882857,24.0000857 0.000257142857,19.0029429 0.000257142857,12.3549429 C0.000257142857,5.75408571 5.13882857,0.7098 11.8811143,0.7098" id="Fill-1" fill="#FEFEFE" mask="url(#mask-2)"></path>
            </g>
        </g>
    </g>
</svg>