<?xml version="1.0" encoding="UTF-8"?>
<svg width="19px" height="24px" viewBox="0 0 19 24" version="1.1" xmlns="http://www.w3.org/2000/svg" xmlns:xlink="http://www.w3.org/1999/xlink">
    <title>reports icon</title>
    <defs>
        <path d="M1.86401463,0 C0.836,0 0,0.850851252 0,1.89695434 L0,1.89695434 L0,22.103187 C0,23.1492901 0.836,24 1.86401463,24 L1.86401463,24 L17.1358464,24 C18.1638611,24 19,23.1492901 19,22.103187 L19,22.103187 L19,7.58767599 C19,7.56788218 18.9897185,7.54879529 18.9877733,7.52886009 L18.9877733,7.52886009 C18.9831883,7.44459499 18.9663766,7.36287482 18.9402559,7.28313402 L18.9402559,7.28313402 C18.9301133,7.25287776 18.9226106,7.22346981 18.9095503,7.19505155 L18.9095503,7.19505155 C18.8638391,7.09452725 18.8070128,6.99866863 18.7268446,6.91708984 L18.7268446,6.91708984 L12.2025155,0.277961708 C12.1148446,0.188889543 12.0114735,0.119469809 11.8986545,0.0721060383 L11.8986545,0.0721060383 C11.7858355,0.024742268 11.6656527,0 11.5436636,0 L11.5436636,0 L1.86401463,0 Z M1.86401463,1.89695434 L10.6115174,1.89695434 L10.6115174,7.58767599 C10.6115174,8.11122239 11.0280585,8.53622386 11.5436636,8.53622386 L11.5436636,8.53622386 L17.1358464,8.53622386 L17.1358464,22.103187 L1.86401463,22.103187 L1.86401463,1.89695434 Z M12.475532,2.95535788 L15.8178647,6.35650074 L12.475532,6.35650074 L12.475532,2.95535788 Z" id="path-1"></path>
    </defs>
    <g id="Page-1" stroke="none" stroke-width="1" fill="none" fill-rule="evenodd">
        <g id="Dashboard-landing-page" transform="translate(-26.000000, -257.000000)">
            <g id="reports-icon" transform="translate(26.000000, 257.000000)">
                <mask id="mask-2" fill="white">
                    <use xlink:href="#path-1"></use>
                </mask>
                <g id="Clip-2"></g>
                <polygon id="Fill-1" fill="#FFFFFF" mask="url(#mask-2)" points="-5 28 23 28 23 -5 -5 -5"></polygon>
            </g>
        </g>
    </g>
</svg>