<?xml version="1.0" encoding="UTF-8"?>
<svg width="28px" height="29px" viewBox="0 0 28 29" version="1.1" xmlns="http://www.w3.org/2000/svg" xmlns:xlink="http://www.w3.org/1999/xlink">
    <title>settings icon</title>
    <defs>
        <rect id="path-1" x="0" y="0" width="28" height="28"></rect>
    </defs>
    <g id="Page-1" stroke="none" stroke-width="1" fill="none" fill-rule="evenodd">
        <g id="Dashboard-landing-page" transform="translate(-21.000000, -442.000000)">
            <g id="basic-/-settings" transform="translate(21.000000, 442.900000)">
                <mask id="mask-2" fill="white">
                    <use xlink:href="#path-1"></use>
                </mask>
                <g id="basic-/-settings-(Background/Mask)"></g>
                <path d="M14,18.6666667 C11.4226713,18.6666667 9.33333333,16.5773287 9.33333333,14 C9.33333333,11.4226713 11.4226713,9.33333333 14,9.33333333 C16.5773287,9.33333333 18.6666667,11.4226713 18.6666667,14 C18.6666667,16.5773287 16.5773287,18.6666667 14,18.6666667 Z M14,16.3333333 C12.7113357,16.3333333 11.6666667,15.2886643 11.6666667,14 C11.6666667,12.7113357 12.7113357,11.6666667 14,11.6666667 C15.2886643,11.6666667 16.3333333,12.7113357 16.3333333,14 C16.3333333,15.2886643 15.2886643,16.3333333 14,16.3333333 Z M4.95806505,6.32771269 C5.23219641,5.85290349 5.79995306,5.63303224 6.32237517,5.79936588 L8.4655025,6.48171461 C8.75147811,6.27142914 9.04819607,6.0785253 9.35393572,5.903464 C9.64518849,5.7359699 9.94633301,5.58373928 10.2562772,5.4478639 L10.7369096,3.25068744 C10.8540719,2.71508999 11.3283645,2.33333333 11.8766264,2.33333333 L16.1235355,2.33333333 C16.6717979,2.33333333 17.14609,2.71508999 17.2632523,3.25068751 L17.7438852,5.44786334 C18.0727646,5.59203943 18.391736,5.75463021 18.6994945,5.93433142 C18.9863725,6.10112623 19.2651639,6.2837158 19.5344313,6.48171516 L21.6775589,5.79936727 C22.1999807,5.63303391 22.7677396,5.85290515 23.0418692,6.32771409 L25.1653245,10.0056457 C25.4394563,10.4804552 25.3459918,11.0820827 24.940731,11.4513463 L23.2782342,12.9661768 C23.3163948,13.3103002 23.3351269,13.6550055 23.3348554,13.998696 C23.335227,14.3432611 23.3164972,14.6888487 23.2782364,15.0338521 L24.940731,16.5486798 C25.3459918,16.917944 25.4394563,17.519571 25.1653245,17.9943805 L23.0418692,21.6723118 C22.7677374,22.1471202 22.1999807,22.3669917 21.6775589,22.2006572 L19.5344302,21.5183096 C19.2618717,21.7187303 18.9795543,21.9033607 18.6889691,22.0718025 C18.3844651,22.2490695 18.0690161,22.4096028 17.7438841,22.5521361 L17.2632523,24.7493114 C17.14609,25.2849089 16.6717979,25.6666667 16.1235355,25.6666667 L11.876627,25.6666667 C11.3283645,25.6666667 10.8540719,25.2849112 10.7369102,24.7493137 L10.2562778,22.5521361 C9.94993957,22.4178406 9.65219799,22.2675702 9.36410673,22.102375 C9.05477611,21.9257733 8.75464797,21.7309268 8.46550194,21.5183096 L6.32237434,22.2006572 C5.7999525,22.3669917 5.23219502,22.1471202 4.9580638,21.6723118 L2.83460951,17.9943805 C2.56047836,17.519571 2.65394269,16.917944 3.05920275,16.5486798 L4.7216981,15.033851 C4.6834867,14.6892804 4.66475699,14.3441245 4.66507951,13.9999889 C4.66475866,13.6558677 4.6834885,13.3107274 4.72169838,12.9661724 L3.0592041,11.4513446 C2.65394408,11.0820805 2.56047918,10.4804524 2.8346104,10.0056434 L4.95806505,6.32771269 Z M15.7184539,7.10764209 L16.8070524,7.58486819 C17.0532308,7.692789 17.2921893,7.81458028 17.5229367,7.94931912 L17.5266851,7.95149875 C17.7417556,8.07654333 17.9505911,8.21332884 18.1521478,8.36153873 L19.1097364,9.06567868 L21.4906654,8.30761782 L22.6750762,10.3590744 L20.8281124,12.0419868 L20.9591168,13.2233489 C20.9876822,13.4809505 21.0017268,13.7391785 21.0015187,13.9968524 C21.0018024,14.2595353 20.9877601,14.5184153 20.9591201,14.7766633 L20.8281069,15.9580344 L22.6750762,17.6409523 L21.4906677,19.6924067 L19.1097309,18.9343452 L18.1521411,19.6384902 C17.9481266,19.7885081 17.7366521,19.9268212 17.5187988,20.053098 C17.2867352,20.1881946 17.0504169,20.3084432 16.8070513,20.4151313 L15.7184528,20.8923573 L15.1844897,23.3333333 L12.8156716,23.3333333 L12.2817097,20.8923618 L11.1931172,20.4151346 C10.963804,20.314606 10.7407626,20.2020478 10.5247925,20.0782032 L10.5209807,20.0760269 C10.2890478,19.9436129 10.064219,19.797636 9.84778769,19.638488 L8.89019847,18.9343452 L6.50926669,19.6924067 L5.32485846,17.6409512 L7.1718233,15.9580377 L7.04081479,14.7766711 C7.01221239,14.5187469 6.99817001,14.2601851 6.9984159,14.0021752 C6.99817141,13.7398149 7.0122135,13.4812654 7.04081507,13.2233534 L7.17182441,12.0419868 L5.32485846,10.3590733 L6.50926808,8.30761671 L8.8901968,9.06567868 L9.84778658,8.36153762 C10.0618491,8.20413192 10.284125,8.05961537 10.513357,7.9283607 L10.5171588,7.92617385 C10.7355122,7.80060299 10.9611053,7.68657613 11.1931111,7.58486819 L12.2817086,7.10764154 L12.8156716,4.66666667 L15.1844897,4.66666667 L15.7184539,7.10764209 Z" fill="#FFFFFF" mask="url(#mask-2)"></path>
            </g>
        </g>
    </g>
</svg>