<?xml version="1.0" encoding="utf-8"?>
<!-- Generator: Adobe Illustrator 25.1.0, SVG Export Plug-In . SVG Version: 6.00 Build 0)  -->
<svg version="1.1" id="Layer_1" xmlns="http://www.w3.org/2000/svg" xmlns:xlink="http://www.w3.org/1999/xlink" x="0px" y="0px"
	 viewBox="0 0 339 454" style="enable-background:new 0 0 339 454;" xml:space="preserve">
<style type="text/css">
	.st0{fill:none;stroke:#FFFFFF;stroke-width:1.5;stroke-miterlimit:10;}
	.st1{fill:none;stroke:#FFFFFF;stroke-width:1.25;stroke-miterlimit:10;}
	.st2{fill:#FFFFFF;}
	.st3{fill:none;stroke:#FFFFFF;stroke-width:1.25;stroke-linecap:round;stroke-linejoin:round;stroke-miterlimit:10;}
</style>
<path class="st0" d="M209.3,204.4v36.1c0,0.6-0.5,1.1-1.1,1.1h-27.8c-0.6,0-1.1-0.5-1.1-1.1v-36.1c0-0.6,0.5-1.1,1.1-1.1h8.4
	c0.6-2.3,2.8-4,5.5-4s4.9,1.7,5.5,4h8.4C208.8,203.3,209.3,203.8,209.3,204.4z"/>
<circle class="st0" cx="194.3" cy="205.2" r="2.8"/>
<rect x="182.9" y="210.5" class="st1" width="7.3" height="7.3"/>
<rect x="182.9" y="220.7" class="st1" width="7.3" height="7.3"/>
<rect x="182.9" y="231.1" class="st1" width="7.3" height="7.3"/>
<line class="st0" x1="194.2" y1="211.5" x2="205" y2="211.5"/>
<line class="st0" x1="194.2" y1="216.6" x2="205.1" y2="216.6"/>
<circle class="st2" cx="194.6" cy="214" r="0.6"/>
<circle class="st2" cx="196.3" cy="214" r="0.6"/>
<circle class="st2" cx="198" cy="214" r="0.6"/>
<circle class="st2" cx="199.6" cy="214" r="0.6"/>
<circle class="st2" cx="201.3" cy="214" r="0.6"/>
<circle class="st2" cx="202.9" cy="214" r="0.6"/>
<circle class="st2" cx="204.6" cy="214" r="0.6"/>
<line class="st0" x1="194.2" y1="221.6" x2="205" y2="221.6"/>
<line class="st0" x1="194.2" y1="226.8" x2="205.1" y2="226.8"/>
<circle class="st2" cx="194.6" cy="224.1" r="0.6"/>
<circle class="st2" cx="196.3" cy="224.1" r="0.6"/>
<circle class="st2" cx="198" cy="224.1" r="0.6"/>
<circle class="st2" cx="199.6" cy="224.1" r="0.6"/>
<circle class="st2" cx="201.3" cy="224.1" r="0.6"/>
<circle class="st2" cx="202.9" cy="224.1" r="0.6"/>
<circle class="st2" cx="204.6" cy="224.1" r="0.6"/>
<line class="st0" x1="194.2" y1="231.9" x2="205" y2="231.9"/>
<line class="st0" x1="194.2" y1="237" x2="205.1" y2="237"/>
<circle class="st2" cx="194.6" cy="234.3" r="0.6"/>
<circle class="st2" cx="196.3" cy="234.3" r="0.6"/>
<circle class="st2" cx="198" cy="234.3" r="0.6"/>
<circle class="st2" cx="199.6" cy="234.3" r="0.6"/>
<circle class="st2" cx="201.3" cy="234.3" r="0.6"/>
<circle class="st2" cx="202.9" cy="234.3" r="0.6"/>
<circle class="st2" cx="204.6" cy="234.3" r="0.6"/>
<polyline class="st3" points="184.5,213.5 186.1,216.2 188.2,212.2 "/>
</svg>
