<?xml version="1.0" encoding="UTF-8"?>
<svg width="36px" height="33px" viewBox="0 0 36 33" version="1.1" xmlns="http://www.w3.org/2000/svg" xmlns:xlink="http://www.w3.org/1999/xlink">
    <title>training icon</title>
    <g id="Page-1" stroke="none" stroke-width="1" fill="none" fill-rule="evenodd">
        <g id="Dashboard-landing-page" transform="translate(-17.000000, -375.000000)" fill="#FFFFFF">
            <g id="training-icon" transform="translate(17.000000, 375.400000)">
                <path d="M33.890625,15.7485698 C33.890625,16.0709038 33.7656797,16.37347 33.5382187,16.6009751 C33.3144141,16.8252441 33.0037734,16.9538401 32.6859609,16.9538401 L18.5904844,16.9538401 C18.5885859,16.9480715 18.58725,16.942303 18.5852813,16.9368159 L21.2028047,11.6994159 C21.4631719,11.1781381 21.2522344,10.5444443 20.7312188,10.2836647 C20.2104844,10.0231665 19.5768281,10.2342102 19.3161797,10.755488 L17.0837578,15.2223676 C16.6676484,15.0148413 16.1839688,14.7738998 15.6656953,14.5160748 L15.6656953,3.31570682 C15.6656953,2.65120071 16.2059063,2.11043652 16.8703594,2.11043652 L32.6859609,2.11043652 C33.0037734,2.11043652 33.3144141,2.23903245 33.5385,2.46379394 C33.7656797,2.69080657 33.890625,2.99337281 33.890625,3.31570682 L33.890625,15.7485698 Z M16.5585938,17.9359669 C16.5558516,17.9436348 16.5531094,17.9515841 16.5506484,17.9596038 C16.4786484,18.160447 16.3160859,18.329704 16.1169609,18.4115889 C15.9063047,18.497343 15.6692813,18.4882681 15.4668516,18.3871782 C13.4612578,17.3833139 10.5633281,15.934851 10.5633281,15.934851 C9.86350781,15.5847999 9.03733594,16.094822 9.03733594,16.8787789 L9.03733594,29.386703 L4.36872656,29.386703 L4.36872656,23.6602445 C4.36872656,23.0776937 3.89629687,22.6050263 3.31403906,22.6050263 C2.64965625,22.6050263 2.109375,22.0644731 2.109375,21.399756 L2.109375,18.0090583 C2.109375,15.4305973 4.20778125,13.4130904 6.70303125,13.4130904 L7.63495313,13.4130904 C8.34194531,13.4130904 9.04809375,13.579041 9.6789375,13.8942699 C9.6789375,13.8942699 14.9103984,16.4971416 16.24275,17.1610146 C16.5280781,17.3028359 16.6637813,17.6358628 16.5585938,17.9359669 L16.5585938,17.9359669 Z M3.80404687,8.40185884 C3.80404687,6.80228865 5.10454688,5.50113419 6.70303125,5.50113419 C8.30179688,5.50113419 9.60229688,6.80228865 9.60229688,8.40185884 C9.60229688,10.001218 8.30179688,11.3023724 6.70303125,11.3023724 C5.10454688,11.3023724 3.80404687,10.001218 3.80404687,8.40185884 L3.80404687,8.40185884 Z M32.6859609,0 L16.8703594,0 C15.0430078,0 13.5563203,1.48743566 13.5563203,3.31570682 L13.5563203,13.4664141 L10.6196484,12.0052885 C10.5205078,11.9558339 10.4196797,11.9091229 10.3180781,11.8648741 C11.18025,10.9643509 11.7116719,9.74423716 11.7116719,8.40185884 C11.7116719,5.63880499 9.46497656,3.39069766 6.7033125,3.39069766 C3.94136719,3.39069766 1.69467187,5.63880499 1.69467187,8.40185884 C1.69467187,9.90336407 2.35905469,11.2520737 3.40825781,12.1712392 C1.476,13.2588878 0,15.3806503 0,18.0090583 L0,21.399756 C0,22.8594746 0.947320313,24.1018182 2.25935156,24.5434622 L2.25935156,30.4419213 C2.25935156,31.0244721 2.7315,31.4971395 3.31403906,31.4971395 L10.0920234,31.4971395 C10.6745625,31.4971395 11.1467109,31.0244721 11.1467109,30.4419213 L11.1467109,18.5858406 L14.5233984,20.2747526 C15.8156719,20.9210386 17.5684922,20.5358136 18.3611953,19.0642766 L22.1426719,19.0642766 L18.1384453,30.081107 C17.9393203,30.6287652 18.2219062,31.2344605 18.7692891,31.4334043 C19.395,31.6611908 19.9514531,31.2685089 20.1209062,30.8024542 L24.3871875,19.0642766 L25.1265234,19.0642766 L29.4364687,30.8057605 C29.6001563,31.2512033 30.1525313,31.6666779 30.7902656,31.4322788 C31.336875,31.2314356 31.6175625,30.6252478 31.4164687,30.078082 L27.3735,19.0642766 L32.6859609,19.0642766 C34.477875,19.0642766 36,17.6179944 36,15.7485698 L36,3.31570682 C36,1.44593041 34.477875,0 32.6859609,0 L32.6859609,0 Z" id="Fill-1"></path>
                <path d="M30.4379445,4.5 L19.0620555,4.5 C18.4754469,4.5 18,4.9029 18,5.4 C18,5.8971 18.4754469,6.3 19.0620555,6.3 L30.4379445,6.3 C31.0242699,6.3 31.5,5.8971 31.5,5.4 C31.5,4.9029 31.0245531,4.5 30.4379445,4.5" id="Fill-3"></path>
                <path d="M30.3988182,9 L24.5011818,9 C23.8932561,9 23.4,9.4029 23.4,9.9 C23.4,10.3971 23.8932561,10.8 24.5011818,10.8 L30.3988182,10.8 C31.0067439,10.8 31.5,10.3971 31.5,9.9 C31.5,9.4029 31.0070376,9 30.3988182,9" id="Fill-5"></path>
                <path d="M30.3988182,12.6 L24.5011818,12.6 C23.8932561,12.6 23.4,13.0029 23.4,13.5 C23.4,13.99686 23.8932561,14.4 24.5011818,14.4 L30.3988182,14.4 C31.0067439,14.4 31.5,13.99686 31.5,13.5 C31.5,13.0029 31.0070376,12.6 30.3988182,12.6" id="Fill-7"></path>
            </g>
        </g>
    </g>
</svg>