<?xml version="1.0" encoding="UTF-8"?>
<svg width="26px" height="17px" viewBox="0 0 26 17" version="1.1" xmlns="http://www.w3.org/2000/svg" xmlns:xlink="http://www.w3.org/1999/xlink">
    <title>upload icon</title>
    <g id="Page-1" stroke="none" stroke-width="1" fill="none" fill-rule="evenodd">
        <g id="Dashboard-landing-page" transform="translate(-22.000000, -204.000000)" fill="#FFFFFF">
            <path d="M30.5,213.5625 L34.75,209.3125 L39,213.5625 L36.2906248,213.5625 L36.2906248,216.75 L33.2093752,216.75 L33.2093752,213.5625 L30.5,213.5625 Z M34.75,204 C38.7327375,204 42.075707,206.739179 42.9977705,210.436401 C45.5472027,210.826557 47.5,213.028977 47.5,215.6875 C47.5,218.621513 45.1215121,221 42.1875,221 L28.375,221 C24.8541847,221 22,218.145815 22,214.625 C22,211.456816 24.3110877,208.828416 27.3393656,208.333695 C28.7967733,205.746955 31.5693751,204 34.75,204 C37.4051584,204 37.4051584,204 34.75,204 Z M27.6819785,210.430894 L28.6895831,210.266285 L29.1907392,209.376787 C30.2869039,207.431215 32.3672999,206.125 34.75,206.125 C37.7341957,206.125 40.2443147,208.177447 40.9359242,210.950612 L41.2781835,212.322981 L42.6763098,212.536945 C44.2041177,212.770755 45.375,214.09433 45.375,215.6875 C45.375,217.447908 43.947908,218.875 42.1875,218.875 L28.375,218.875 C26.0277897,218.875 24.125,216.97221 24.125,214.625 C24.125,212.514939 25.6648147,210.760432 27.6819785,210.430894 L27.6819785,210.430894 Z" id="upload-icon"></path>
        </g>
    </g>
</svg>